<?xml version="1.0" encoding="UTF-8"?>
<svg width="120" height="300" viewBox="0 0 120 300" xmlns="http://www.w3.org/2000/svg">
  <!-- Estatua egipcia izquierda (Anubis) -->
  
  <!-- Base de la estatua -->
  <rect x="30" y="240" width="60" height="40" fill="#63473D" stroke="#f7cc4f" stroke-width="2"/>
  <rect x="20" y="280" width="80" height="20" fill="#8b5d3b" stroke="#f7cc4f" stroke-width="2"/>
  
  <!-- Cuerpo de la estatua -->
  <rect x="40" y="140" width="40" height="100" fill="#63473D" stroke="#f7cc4f" stroke-width="1.5"/>
  
  <!-- Decoración del cuerpo -->
  <path d="M40,170 L80,170 M40,200 L80,200" stroke="#f7cc4f" stroke-width="1" fill="none"/>
  <rect x="50" y="170" width="20" height="30" fill="#382518" stroke="#f7cc4f" stroke-width="1"/>
  
  <!-- Brazos cruzados -->
  <path d="M40,160 
           C20,180 50,180 50,160" 
        fill="#63473D" stroke="#f7cc4f" stroke-width="1.5"/>
  
  <path d="M80,160 
           C100,180 70,180 70,160" 
        fill="#63473D" stroke="#f7cc4f" stroke-width="1.5"/>
  
  <!-- Cabeza de Anubis -->
  <path d="M40,80 
           C40,40 80,40 80,80
           L80,140 L40,140 Z" 
        fill="#382518" stroke="#f7cc4f" stroke-width="1.5"/>
  
  <!-- Orejas -->
  <path d="M40,70 
           L30,40 L40,65" 
        fill="#382518" stroke="#f7cc4f" stroke-width="1.5"/>
  
  <path d="M80,70 
           L90,40 L80,65" 
        fill="#382518" stroke="#f7cc4f" stroke-width="1.5"/>
  
  <!-- Ojos -->
  <ellipse cx="50" cy="100" rx="5" ry="7" fill="#f7cc4f"/>
  <ellipse cx="70" cy="100" rx="5" ry="7" fill="#f7cc4f"/>
  
  <!-- Hocico -->
  <path d="M50,110 
           C50,130 70,130 70,110" 
        fill="#382518" stroke="#f7cc4f" stroke-width="1.5"/>
  
  <!-- Collar -->
  <path d="M40,140 
           C40,150 80,150 80,140" 
        fill="#f7cc4f" stroke="#f7cc4f" stroke-width="1"/>
  
  <!-- Decoración de la cabeza -->
  <path d="M60,40 
           L60,25" 
        stroke="#f7cc4f" stroke-width="2" fill="none"/>
  <circle cx="60" cy="20" r="5" fill="#f7cc4f"/>
</svg>