<?xml version="1.0" encoding="UTF-8"?>
<svg width="40" height="40" viewBox="0 0 40 40" xmlns="http://www.w3.org/2000/svg">
  <circle cx="20" cy="20" r="19" fill="#63473D" stroke="#f7cc4f" stroke-width="1"/>
  
  <!-- Pirámide - estructura principal -->
  <path d="M5,32 L20,8 L35,32 Z" 
        stroke="#f7cc4f" stroke-width="1.5" fill="#382518"/>
  
  <!-- Líneas de bloques de la pirámide -->
  <path d="M9,28 L31,28" stroke="#f7cc4f" stroke-width="0.8" fill="none"/>
  <path d="M11,24 L29,24" stroke="#f7cc4f" stroke-width="0.8" fill="none"/>
  <path d="M13,20 L27,20" stroke="#f7cc4f" stroke-width="0.8" fill="none"/>
  <path d="M15,16 L25,16" stroke="#f7cc4f" stroke-width="0.8" fill="none"/>
  <path d="M17,12 L23,12" stroke="#f7cc4f" stroke-width="0.8" fill="none"/>
  
  <!-- Líneas verticales para los bloques -->
  <path d="M9,28 L9,32" stroke="#f7cc4f" stroke-width="0.8" fill="none"/>
  <path d="M15,28 L15,32" stroke="#f7cc4f" stroke-width="0.8" fill="none"/>
  <path d="M21,28 L21,32" stroke="#f7cc4f" stroke-width="0.8" fill="none"/>
  <path d="M27,28 L27,32" stroke="#f7cc4f" stroke-width="0.8" fill="none"/>
  
  <path d="M11,24 L11,28" stroke="#f7cc4f" stroke-width="0.8" fill="none"/>
  <path d="M16,24 L16,28" stroke="#f7cc4f" stroke-width="0.8" fill="none"/>
  <path d="M21,24 L21,28" stroke="#f7cc4f" stroke-width="0.8" fill="none"/>
  <path d="M26,24 L26,28" stroke="#f7cc4f" stroke-width="0.8" fill="none"/>
  
  <!-- Sol sobre la pirámide -->
  <circle cx="20" cy="5" r="2.5" fill="#f7cc4f"/>
  <path d="M16,5 L14,5" stroke="#f7cc4f" stroke-width="0.8"/>
  <path d="M24,5 L26,5" stroke="#f7cc4f" stroke-width="0.8"/>
  <path d="M20,3 L20,1" stroke="#f7cc4f" stroke-width="0.8"/>
  <path d="M20,7 L20,9" stroke="#f7cc4f" stroke-width="0.8"/>
  <path d="M17.5,2.5 L16.5,1.5" stroke="#f7cc4f" stroke-width="0.8"/>
  <path d="M22.5,2.5 L23.5,1.5" stroke="#f7cc4f" stroke-width="0.8"/>
  <path d="M17.5,7.5 L16.5,8.5" stroke="#f7cc4f" stroke-width="0.8"/>
  <path d="M22.5,7.5 L23.5,8.5" stroke="#f7cc4f" stroke-width="0.8"/>
</svg>